<svg xmlns="http://www.w3.org/2000/svg" xmlns:xlink="http://www.w3.org/1999/xlink" preserveAspectRatio="xMidYMid" width="18.062" height="24.72" viewBox="0 0 18.062 24.72">
  <defs>
    <style>
      .cls-1 {
        fill: #000;
        fill-rule: evenodd;
      }
    </style>
  </defs>
  <path d="M17.661,23.075 L17.657,23.077 C17.659,23.079 15.828,24.153 15.828,24.153 L11.992,17.691 L13.822,16.612 C14.219,16.381 14.729,16.505 14.965,16.903 C14.966,16.906 17.954,21.926 17.954,21.926 L17.953,21.931 C18.178,22.313 18.081,22.828 17.661,23.075 ZM3.171,15.677 C-2.215,6.349 0.663,2.232 1.679,1.473 L5.605,8.075 C4.660,8.632 5.113,9.885 5.676,11.110 C5.685,11.169 8.405,15.731 8.429,15.747 C9.835,17.645 10.597,18.519 11.501,17.988 L15.327,24.433 C14.244,25.099 8.845,25.508 3.171,15.677 ZM7.936,6.703 L7.936,6.706 C7.935,6.709 6.105,7.781 6.105,7.781 L2.184,1.176 L4.014,0.096 C4.410,-0.134 4.921,-0.011 5.157,0.388 C5.159,0.390 8.232,5.556 8.232,5.556 L8.231,5.562 C8.455,5.941 8.356,6.454 7.936,6.703 Z" class="cls-1"/>
</svg>
