<svg xmlns="http://www.w3.org/2000/svg" xmlns:xlink="http://www.w3.org/1999/xlink" preserveAspectRatio="xMidYMid" width="52" height="71.5" viewBox="0 0 52 71.5">
  <defs>
    <style>
      .cls-1 {
        fill: #fff;
      }

      .cls-1, .cls-2 {
        fill-rule: evenodd;
      }

      .cls-2 {
        stroke: #fff;
        stroke-width: 3px;
        fill: none;
      }
    </style>
  </defs>
  <g>
    <path d="M19.914,33.325 L21.980,33.325 L21.980,70.000 L19.914,70.000 L19.914,33.325 Z" class="cls-1"/>
    <path d="M39.846,18.990 C39.846,21.606 38.087,23.794 35.680,24.534 C36.858,26.737 36.535,29.516 34.655,31.369 C32.778,33.220 29.965,33.541 27.732,32.386 C26.985,34.765 24.763,36.504 22.104,36.504 C19.450,36.504 17.231,34.770 16.480,32.397 C14.246,33.559 11.427,33.240 9.547,31.387 C7.664,29.530 7.342,26.746 8.527,24.541 C6.108,23.808 4.338,21.615 4.338,18.990 C4.338,16.369 6.103,14.178 8.516,13.442 C7.345,11.241 7.670,8.468 9.547,6.618 C11.427,4.764 14.246,4.445 16.480,5.607 C17.231,3.234 19.450,1.500 22.104,1.500 C24.763,1.500 26.985,3.239 27.732,5.618 C29.965,4.463 32.778,4.785 34.655,6.635 C36.529,8.482 36.856,11.250 35.691,13.449 C38.093,14.192 39.846,16.377 39.846,18.990 ZM28.705,16.302 C27.822,16.030 26.985,15.575 26.286,14.885 C25.580,14.190 25.117,13.356 24.842,12.477 C24.020,12.904 23.098,13.168 22.104,13.168 C21.107,13.168 20.181,12.902 19.356,12.472 C19.081,13.346 18.619,14.176 17.916,14.868 C17.211,15.564 16.365,16.021 15.474,16.291 C15.906,17.102 16.174,18.011 16.174,18.990 C16.174,19.978 15.902,20.894 15.462,21.709 C16.358,21.980 17.208,22.437 17.916,23.136 C18.619,23.828 19.081,24.658 19.356,25.532 C20.181,25.103 21.107,24.836 22.104,24.836 C23.098,24.836 24.020,25.100 24.842,25.527 C25.117,24.648 25.580,23.814 26.286,23.119 C26.988,22.426 27.829,21.971 28.716,21.699 C28.280,20.886 28.010,19.974 28.010,18.990 C28.010,18.015 28.276,17.110 28.705,16.302 Z" class="cls-2"/>
    <path d="M22.092,8.496 C27.972,8.496 32.739,13.197 32.739,18.997 C32.739,24.797 27.972,29.498 22.092,29.498 C16.212,29.498 11.446,24.797 11.446,18.997 C11.446,13.197 16.212,8.496 22.092,8.496 Z" class="cls-2"/>
    <path d="M22.970,58.195 L21.925,57.151 L35.871,43.324 L36.916,44.369 L22.970,58.195 Z" class="cls-2"/>
    <path d="M23.131,56.615 L22.086,58.359 L4.653,41.076 L5.698,39.332 L23.131,56.615 Z" class="cls-2"/>
    <path d="M50.496,31.447 C50.496,31.447 49.512,45.866 45.257,50.085 C41.002,54.303 34.517,54.714 30.772,51.001 C27.028,47.289 27.442,40.860 31.697,36.641 C35.952,32.423 50.496,31.447 50.496,31.447 Z" class="cls-2"/>
    <path d="M1.498,37.898 C1.498,37.898 2.218,48.408 5.335,51.483 C8.452,54.558 13.202,54.857 15.945,52.151 C18.688,49.445 18.384,44.759 15.268,41.684 C12.151,38.609 1.498,37.898 1.498,37.898 Z" class="cls-2"/>
  </g>
</svg>
