<svg xmlns="http://www.w3.org/2000/svg" xmlns:xlink="http://www.w3.org/1999/xlink" preserveAspectRatio="xMidYMid" width="61" height="71.34" viewBox="0 0 61 71.34">
  <defs>
    <style>
      .cls-1 {
        stroke: #fff;
        stroke-width: 3px;
        fill: none;
        fill-rule: evenodd;
      }
    </style>
  </defs>
  <g>
    <path d="M14.232,43.505 C18.024,28.060 28.628,16.081 42.058,9.986 C31.178,16.596 22.813,27.354 19.536,40.703 C17.889,47.411 17.684,54.135 18.722,60.547 C27.335,63.334 37.164,61.310 44.004,54.463 C59.491,38.961 59.499,3.704 59.499,3.704 C59.499,3.704 24.277,3.712 8.790,19.214 C-0.934,28.948 -0.934,44.729 8.790,54.463 C10.047,55.722 11.406,56.813 12.839,57.746 C12.621,53.070 13.059,48.284 14.232,43.505 Z" class="cls-1"/>
    <path d="M8.785,52.244 C-0.941,42.513 -0.941,26.735 8.785,17.004 C24.274,1.506 59.500,1.499 59.500,1.499 C59.500,1.499 59.493,36.745 44.004,52.244 C34.278,61.975 18.510,61.975 8.785,52.244 Z" class="cls-1"/>
    <path d="M8.842,55.139 C8.842,55.139 2.909,60.273 5.905,69.834 " class="cls-1"/>
    <path d="M4.437,69.099 C4.437,69.099 -1.443,21.916 58.766,2.235 " class="cls-1"/>
    <path d="M35.272,15.461 L35.272,14.726 L34.538,14.726 L34.538,8.113 L36.006,8.113 L36.006,13.991 L51.424,13.991 L51.424,15.461 L35.272,15.461 ZM44.816,28.687 L19.120,28.687 L19.120,27.952 L18.386,27.952 L18.386,13.991 L19.854,13.991 L19.854,27.217 L44.816,27.217 L44.816,28.687 ZM38.943,44.852 L10.310,44.852 L10.310,44.117 L8.842,44.117 L8.842,25.013 L10.310,25.013 L10.310,43.382 L38.943,43.382 L38.943,44.852 Z" class="cls-1"/>
  </g>
</svg>
