<svg xmlns="http://www.w3.org/2000/svg" xmlns:xlink="http://www.w3.org/1999/xlink" preserveAspectRatio="xMidYMid" width="63" height="67" viewBox="0 0 63 67">
  <defs>
    <style>
      .cls-1 {
        stroke: #fff;
        stroke-width: 3px;
        fill: none;
        fill-rule: evenodd;
      }
    </style>
  </defs>
  <g>
    <path d="M59.435,35.969 L32.222,63.015 C31.193,64.038 29.923,64.674 28.593,64.926 C27.724,65.301 26.766,65.513 25.751,65.504 L8.782,65.349 C4.878,65.314 1.683,62.139 1.648,58.258 L1.492,41.394 C1.471,39.164 2.519,37.210 4.137,35.937 C4.266,35.785 4.371,35.621 4.515,35.478 L31.727,8.432 C34.460,5.717 38.890,5.717 41.623,8.432 L59.435,26.135 C62.167,28.851 62.167,33.254 59.435,35.969 ZM18.327,48.266 C16.415,46.365 13.313,46.365 11.401,48.266 C9.488,50.167 9.488,53.249 11.401,55.150 C13.313,57.051 16.415,57.051 18.327,55.150 C20.240,53.249 20.240,50.167 18.327,48.266 Z" class="cls-1"/>
    <path d="M16.719,57.829 C16.719,57.829 5.523,47.745 5.523,26.535 C5.523,5.325 10.421,1.500 12.520,1.500 C14.619,1.500 18.468,5.672 18.818,23.058 " class="cls-1"/>
  </g>
</svg>
